<svg id="design1" xmlns="http://www.w3.org/2000/svg" width="257.413" height="298.425" viewBox="0 0 257.413 298.425">
  <g id="Component_2_2" data-name="Component 2 – 2" transform="translate(134 234.362)">
    <circle id="Ellipse_4" data-name="Ellipse 4" cx="1" cy="1" r="1" transform="translate(24 30)" fill="#003f46"/>
    <circle id="Ellipse_102" data-name="Ellipse 102" cx="1" cy="1" r="1" transform="translate(24 10)" fill="#003f46"/>
    <circle id="Ellipse_69" data-name="Ellipse 69" cx="1" cy="1" r="1" transform="translate(24 20)" fill="#003f46"/>
    <circle id="Ellipse_103" data-name="Ellipse 103" cx="1" cy="1" r="1" transform="translate(24)" fill="#003f46"/>
    <circle id="Ellipse_60" data-name="Ellipse 60" cx="1" cy="1" r="1" transform="translate(72 30)" fill="#003f46"/>
    <circle id="Ellipse_87" data-name="Ellipse 87" cx="1" cy="1" r="1" transform="translate(72 10)" fill="#003f46"/>
    <circle id="Ellipse_70" data-name="Ellipse 70" cx="1" cy="1" r="1" transform="translate(72 20)" fill="#003f46"/>
    <circle id="Ellipse_88" data-name="Ellipse 88" cx="1" cy="1" r="1" transform="translate(72)" fill="#003f46"/>
    <circle id="Ellipse_11" data-name="Ellipse 11" cx="1" cy="1" r="1" transform="translate(0 30)" fill="#003f46"/>
    <circle id="Ellipse_114" data-name="Ellipse 114" cx="1" cy="1" r="1" transform="translate(0 10)" fill="#003f46"/>
    <circle id="Ellipse_71" data-name="Ellipse 71" cx="1" cy="1" r="1" transform="translate(0 20)" fill="#003f46"/>
    <circle id="Ellipse_115" data-name="Ellipse 115" cx="1" cy="1" r="1" fill="#003f46"/>
    <circle id="Ellipse_61" data-name="Ellipse 61" cx="1" cy="1" r="1" transform="translate(48 30)" fill="#003f46"/>
    <circle id="Ellipse_89" data-name="Ellipse 89" cx="1" cy="1" r="1" transform="translate(48 10)" fill="#003f46"/>
    <circle id="Ellipse_72" data-name="Ellipse 72" cx="1" cy="1" r="1" transform="translate(48 20)" fill="#003f46"/>
    <circle id="Ellipse_90" data-name="Ellipse 90" cx="1" cy="1" r="1" transform="translate(48)" fill="#003f46"/>
    <circle id="Ellipse_5" data-name="Ellipse 5" cx="1" cy="1" r="1" transform="translate(30 30)" fill="#003f46"/>
    <circle id="Ellipse_104" data-name="Ellipse 104" cx="1" cy="1" r="1" transform="translate(30 10)" fill="#003f46"/>
    <circle id="Ellipse_73" data-name="Ellipse 73" cx="1" cy="1" r="1" transform="translate(30 20)" fill="#003f46"/>
    <circle id="Ellipse_105" data-name="Ellipse 105" cx="1" cy="1" r="1" transform="translate(30)" fill="#003f46"/>
    <circle id="Ellipse_62" data-name="Ellipse 62" cx="1" cy="1" r="1" transform="translate(78 30)" fill="#003f46"/>
    <circle id="Ellipse_84" data-name="Ellipse 84" cx="1" cy="1" r="1" transform="translate(78 10)" fill="#003f46"/>
    <circle id="Ellipse_74" data-name="Ellipse 74" cx="1" cy="1" r="1" transform="translate(78 20)" fill="#003f46"/>
    <circle id="Ellipse_91" data-name="Ellipse 91" cx="1" cy="1" r="1" transform="translate(78)" fill="#003f46"/>
    <circle id="Ellipse_9" data-name="Ellipse 9" cx="1" cy="1" r="1" transform="translate(6 30)" fill="#003f46"/>
    <circle id="Ellipse_112" data-name="Ellipse 112" cx="1" cy="1" r="1" transform="translate(6 10)" fill="#003f46"/>
    <circle id="Ellipse_75" data-name="Ellipse 75" cx="1" cy="1" r="1" transform="translate(6 20)" fill="#003f46"/>
    <circle id="Ellipse_113" data-name="Ellipse 113" cx="1" cy="1" r="1" transform="translate(6)" fill="#003f46"/>
    <circle id="Ellipse_63" data-name="Ellipse 63" cx="1" cy="1" r="1" transform="translate(54 30)" fill="#003f46"/>
    <circle id="Ellipse_92" data-name="Ellipse 92" cx="1" cy="1" r="1" transform="translate(54 10)" fill="#003f46"/>
    <circle id="Ellipse_76" data-name="Ellipse 76" cx="1" cy="1" r="1" transform="translate(54 20)" fill="#003f46"/>
    <circle id="Ellipse_93" data-name="Ellipse 93" cx="1" cy="1" r="1" transform="translate(54)" fill="#003f46"/>
    <circle id="Ellipse_6" data-name="Ellipse 6" cx="1" cy="1" r="1" transform="translate(36 30)" fill="#003f46"/>
    <circle id="Ellipse_106" data-name="Ellipse 106" cx="1" cy="1" r="1" transform="translate(36 10)" fill="#003f46"/>
    <circle id="Ellipse_77" data-name="Ellipse 77" cx="1" cy="1" r="1" transform="translate(36 20)" fill="#003f46"/>
    <circle id="Ellipse_107" data-name="Ellipse 107" cx="1" cy="1" r="1" transform="translate(36)" fill="#003f46"/>
    <circle id="Ellipse_64" data-name="Ellipse 64" cx="1" cy="1" r="1" transform="translate(84 30)" fill="#003f46"/>
    <circle id="Ellipse_85" data-name="Ellipse 85" cx="1" cy="1" r="1" transform="translate(84 10)" fill="#003f46"/>
    <circle id="Ellipse_78" data-name="Ellipse 78" cx="1" cy="1" r="1" transform="translate(84 20)" fill="#003f46"/>
    <circle id="Ellipse_94" data-name="Ellipse 94" cx="1" cy="1" r="1" transform="translate(84)" fill="#003f46"/>
    <circle id="Ellipse_10" data-name="Ellipse 10" cx="1" cy="1" r="1" transform="translate(12 30)" fill="#003f46"/>
    <circle id="Ellipse_108" data-name="Ellipse 108" cx="1" cy="1" r="1" transform="translate(12 10)" fill="#003f46"/>
    <circle id="Ellipse_79" data-name="Ellipse 79" cx="1" cy="1" r="1" transform="translate(12 20)" fill="#003f46"/>
    <circle id="Ellipse_109" data-name="Ellipse 109" cx="1" cy="1" r="1" transform="translate(12)" fill="#003f46"/>
    <circle id="Ellipse_65" data-name="Ellipse 65" cx="1" cy="1" r="1" transform="translate(60 30)" fill="#003f46"/>
    <circle id="Ellipse_95" data-name="Ellipse 95" cx="1" cy="1" r="1" transform="translate(60 10)" fill="#003f46"/>
    <circle id="Ellipse_80" data-name="Ellipse 80" cx="1" cy="1" r="1" transform="translate(60 20)" fill="#003f46"/>
    <circle id="Ellipse_96" data-name="Ellipse 96" cx="1" cy="1" r="1" transform="translate(60)" fill="#003f46"/>
    <circle id="Ellipse_7" data-name="Ellipse 7" cx="1" cy="1" r="1" transform="translate(42 30)" fill="#003f46"/>
    <circle id="Ellipse_100" data-name="Ellipse 100" cx="1" cy="1" r="1" transform="translate(42 10)" fill="#003f46"/>
    <circle id="Ellipse_81" data-name="Ellipse 81" cx="1" cy="1" r="1" transform="translate(42 20)" fill="#003f46"/>
    <circle id="Ellipse_101" data-name="Ellipse 101" cx="1" cy="1" r="1" transform="translate(42)" fill="#003f46"/>
    <circle id="Ellipse_66" data-name="Ellipse 66" cx="1" cy="1" r="1" transform="translate(90 30)" fill="#003f46"/>
    <circle id="Ellipse_86" data-name="Ellipse 86" cx="1" cy="1" r="1" transform="translate(90 10)" fill="#003f46"/>
    <circle id="Ellipse_68" data-name="Ellipse 68" cx="1" cy="1" r="1" transform="translate(90 20)" fill="#003f46"/>
    <circle id="Ellipse_97" data-name="Ellipse 97" cx="1" cy="1" r="1" transform="translate(90)" fill="#003f46"/>
    <circle id="Ellipse_8" data-name="Ellipse 8" cx="1" cy="1" r="1" transform="translate(18 30)" fill="#003f46"/>
    <circle id="Ellipse_110" data-name="Ellipse 110" cx="1" cy="1" r="1" transform="translate(18 10)" fill="#003f46"/>
    <circle id="Ellipse_82" data-name="Ellipse 82" cx="1" cy="1" r="1" transform="translate(18 20)" fill="#003f46"/>
    <circle id="Ellipse_111" data-name="Ellipse 111" cx="1" cy="1" r="1" transform="translate(18)" fill="#003f46"/>
    <circle id="Ellipse_67" data-name="Ellipse 67" cx="1" cy="1" r="1" transform="translate(66 30)" fill="#003f46"/>
    <circle id="Ellipse_98" data-name="Ellipse 98" cx="1" cy="1" r="1" transform="translate(66 10)" fill="#003f46"/>
    <circle id="Ellipse_83" data-name="Ellipse 83" cx="1" cy="1" r="1" transform="translate(66 20)" fill="#003f46"/>
    <circle id="Ellipse_99" data-name="Ellipse 99" cx="1" cy="1" r="1" transform="translate(66)" fill="#003f46"/>
  </g>
  <path id="Subtraction_1" data-name="Subtraction 1" d="M36,83.69h0a40.629,40.629,0,0,1-25.6-13.744A42.043,42.043,0,0,1,2.772,57.213a43.1,43.1,0,0,1,.45-31.561A41.931,41.931,0,0,1,12.009,12.3a40.823,40.823,0,0,1,13.032-9,40.243,40.243,0,0,1,30.389-.625,40.653,40.653,0,0,1,12.184,7.376,41.853,41.853,0,0,1,8.985,11.1A42.29,42.29,0,0,1,81.433,35H36Z" transform="matrix(0.883, 0.469, -0.469, 0.883, 131.099, 186.3)" fill="#00a0b1"/>
  <g id="Component_1_1" data-name="Component 1 – 1" transform="matrix(0.875, 0.485, -0.485, 0.875, 101.731, 0)">
    <line id="Line_1" data-name="Line 1" y2="188" transform="translate(12)" fill="none" stroke="#686868" stroke-width="1"/>
    <line id="Line_16" data-name="Line 16" y2="178" transform="translate(0 160) rotate(-90)" fill="none" stroke="#686868" stroke-width="1"/>
    <line id="Line_10" data-name="Line 10" y2="178" transform="translate(0 80) rotate(-90)" fill="none" stroke="#686868" stroke-width="1"/>
    <line id="Line_4" data-name="Line 4" y2="188" transform="translate(52)" fill="none" stroke="#686868" stroke-width="1"/>
    <line id="Line_14" data-name="Line 14" y2="178" transform="translate(0 120) rotate(-90)" fill="none" stroke="#686868" stroke-width="1"/>
    <line id="Line_15" data-name="Line 15" y2="178" transform="translate(0 140) rotate(-90)" fill="none" stroke="#686868" stroke-width="1"/>
    <line id="Line_8" data-name="Line 8" y2="188" transform="translate(112)" fill="none" stroke="#686868" stroke-width="1"/>
    <line id="Line_12" data-name="Line 12" y2="178" transform="translate(0 60) rotate(-90)" fill="none" stroke="#686868" stroke-width="1"/>
    <line id="Line_3" data-name="Line 3" y2="188" transform="translate(72)" fill="none" stroke="#686868" stroke-width="1"/>
    <line id="Line_5" data-name="Line 5" y2="188" transform="translate(152)" fill="none" stroke="#686868" stroke-width="1"/>
    <line id="Line_9" data-name="Line 9" y2="178" transform="translate(0 20) rotate(-90)" fill="none" stroke="#686868" stroke-width="1"/>
  </g>
  <ellipse id="Ellipse_3" data-name="Ellipse 3" cx="41" cy="42" rx="41" ry="42" transform="translate(164 14.362)" fill="#345b63"/>
  <circle id="Ellipse_2" data-name="Ellipse 2" cx="9" cy="9" r="9" transform="translate(67 85.362)" fill="#152d35"/>
  <g id="Component_2_1" data-name="Component 2 – 1" transform="translate(0 62.362)">
    <circle id="Ellipse_4-2" data-name="Ellipse 4" cx="1" cy="1" r="1" transform="translate(24 30)" fill="#003f46"/>
    <circle id="Ellipse_102-2" data-name="Ellipse 102" cx="1" cy="1" r="1" transform="translate(24 10)" fill="#003f46"/>
    <circle id="Ellipse_69-2" data-name="Ellipse 69" cx="1" cy="1" r="1" transform="translate(24 20)" fill="#003f46"/>
    <circle id="Ellipse_103-2" data-name="Ellipse 103" cx="1" cy="1" r="1" transform="translate(24)" fill="#003f46"/>
    <circle id="Ellipse_60-2" data-name="Ellipse 60" cx="1" cy="1" r="1" transform="translate(72 30)" fill="#003f46"/>
    <circle id="Ellipse_87-2" data-name="Ellipse 87" cx="1" cy="1" r="1" transform="translate(72 10)" fill="#003f46"/>
    <circle id="Ellipse_70-2" data-name="Ellipse 70" cx="1" cy="1" r="1" transform="translate(72 20)" fill="#003f46"/>
    <circle id="Ellipse_88-2" data-name="Ellipse 88" cx="1" cy="1" r="1" transform="translate(72)" fill="#003f46"/>
    <circle id="Ellipse_11-2" data-name="Ellipse 11" cx="1" cy="1" r="1" transform="translate(0 30)" fill="#003f46"/>
    <circle id="Ellipse_114-2" data-name="Ellipse 114" cx="1" cy="1" r="1" transform="translate(0 10)" fill="#003f46"/>
    <circle id="Ellipse_71-2" data-name="Ellipse 71" cx="1" cy="1" r="1" transform="translate(0 20)" fill="#003f46"/>
    <circle id="Ellipse_115-2" data-name="Ellipse 115" cx="1" cy="1" r="1" fill="#003f46"/>
    <circle id="Ellipse_61-2" data-name="Ellipse 61" cx="1" cy="1" r="1" transform="translate(48 30)" fill="#003f46"/>
    <circle id="Ellipse_89-2" data-name="Ellipse 89" cx="1" cy="1" r="1" transform="translate(48 10)" fill="#003f46"/>
    <circle id="Ellipse_72-2" data-name="Ellipse 72" cx="1" cy="1" r="1" transform="translate(48 20)" fill="#003f46"/>
    <circle id="Ellipse_90-2" data-name="Ellipse 90" cx="1" cy="1" r="1" transform="translate(48)" fill="#003f46"/>
    <circle id="Ellipse_5-2" data-name="Ellipse 5" cx="1" cy="1" r="1" transform="translate(30 30)" fill="#003f46"/>
    <circle id="Ellipse_104-2" data-name="Ellipse 104" cx="1" cy="1" r="1" transform="translate(30 10)" fill="#003f46"/>
    <circle id="Ellipse_73-2" data-name="Ellipse 73" cx="1" cy="1" r="1" transform="translate(30 20)" fill="#003f46"/>
    <circle id="Ellipse_105-2" data-name="Ellipse 105" cx="1" cy="1" r="1" transform="translate(30)" fill="#003f46"/>
    <circle id="Ellipse_62-2" data-name="Ellipse 62" cx="1" cy="1" r="1" transform="translate(78 30)" fill="#003f46"/>
    <circle id="Ellipse_84-2" data-name="Ellipse 84" cx="1" cy="1" r="1" transform="translate(78 10)" fill="#003f46"/>
    <circle id="Ellipse_74-2" data-name="Ellipse 74" cx="1" cy="1" r="1" transform="translate(78 20)" fill="#003f46"/>
    <circle id="Ellipse_91-2" data-name="Ellipse 91" cx="1" cy="1" r="1" transform="translate(78)" fill="#003f46"/>
    <circle id="Ellipse_9-2" data-name="Ellipse 9" cx="1" cy="1" r="1" transform="translate(6 30)" fill="#003f46"/>
    <circle id="Ellipse_112-2" data-name="Ellipse 112" cx="1" cy="1" r="1" transform="translate(6 10)" fill="#003f46"/>
    <circle id="Ellipse_75-2" data-name="Ellipse 75" cx="1" cy="1" r="1" transform="translate(6 20)" fill="#003f46"/>
    <circle id="Ellipse_113-2" data-name="Ellipse 113" cx="1" cy="1" r="1" transform="translate(6)" fill="#003f46"/>
    <circle id="Ellipse_63-2" data-name="Ellipse 63" cx="1" cy="1" r="1" transform="translate(54 30)" fill="#003f46"/>
    <circle id="Ellipse_92-2" data-name="Ellipse 92" cx="1" cy="1" r="1" transform="translate(54 10)" fill="#003f46"/>
    <circle id="Ellipse_76-2" data-name="Ellipse 76" cx="1" cy="1" r="1" transform="translate(54 20)" fill="#003f46"/>
    <circle id="Ellipse_93-2" data-name="Ellipse 93" cx="1" cy="1" r="1" transform="translate(54)" fill="#003f46"/>
    <circle id="Ellipse_6-2" data-name="Ellipse 6" cx="1" cy="1" r="1" transform="translate(36 30)" fill="#003f46"/>
    <circle id="Ellipse_106-2" data-name="Ellipse 106" cx="1" cy="1" r="1" transform="translate(36 10)" fill="#003f46"/>
    <circle id="Ellipse_77-2" data-name="Ellipse 77" cx="1" cy="1" r="1" transform="translate(36 20)" fill="#003f46"/>
    <circle id="Ellipse_107-2" data-name="Ellipse 107" cx="1" cy="1" r="1" transform="translate(36)" fill="#003f46"/>
    <circle id="Ellipse_64-2" data-name="Ellipse 64" cx="1" cy="1" r="1" transform="translate(84 30)" fill="#003f46"/>
    <circle id="Ellipse_85-2" data-name="Ellipse 85" cx="1" cy="1" r="1" transform="translate(84 10)" fill="#003f46"/>
    <circle id="Ellipse_78-2" data-name="Ellipse 78" cx="1" cy="1" r="1" transform="translate(84 20)" fill="#003f46"/>
    <circle id="Ellipse_94-2" data-name="Ellipse 94" cx="1" cy="1" r="1" transform="translate(84)" fill="#003f46"/>
    <circle id="Ellipse_10-2" data-name="Ellipse 10" cx="1" cy="1" r="1" transform="translate(12 30)" fill="#003f46"/>
    <circle id="Ellipse_108-2" data-name="Ellipse 108" cx="1" cy="1" r="1" transform="translate(12 10)" fill="#003f46"/>
    <circle id="Ellipse_79-2" data-name="Ellipse 79" cx="1" cy="1" r="1" transform="translate(12 20)" fill="#003f46"/>
    <circle id="Ellipse_109-2" data-name="Ellipse 109" cx="1" cy="1" r="1" transform="translate(12)" fill="#003f46"/>
    <circle id="Ellipse_65-2" data-name="Ellipse 65" cx="1" cy="1" r="1" transform="translate(60 30)" fill="#003f46"/>
    <circle id="Ellipse_95-2" data-name="Ellipse 95" cx="1" cy="1" r="1" transform="translate(60 10)" fill="#003f46"/>
    <circle id="Ellipse_80-2" data-name="Ellipse 80" cx="1" cy="1" r="1" transform="translate(60 20)" fill="#003f46"/>
    <circle id="Ellipse_96-2" data-name="Ellipse 96" cx="1" cy="1" r="1" transform="translate(60)" fill="#003f46"/>
    <circle id="Ellipse_7-2" data-name="Ellipse 7" cx="1" cy="1" r="1" transform="translate(42 30)" fill="#003f46"/>
    <circle id="Ellipse_100-2" data-name="Ellipse 100" cx="1" cy="1" r="1" transform="translate(42 10)" fill="#003f46"/>
    <circle id="Ellipse_81-2" data-name="Ellipse 81" cx="1" cy="1" r="1" transform="translate(42 20)" fill="#003f46"/>
    <circle id="Ellipse_101-2" data-name="Ellipse 101" cx="1" cy="1" r="1" transform="translate(42)" fill="#003f46"/>
    <circle id="Ellipse_66-2" data-name="Ellipse 66" cx="1" cy="1" r="1" transform="translate(90 30)" fill="#003f46"/>
    <circle id="Ellipse_86-2" data-name="Ellipse 86" cx="1" cy="1" r="1" transform="translate(90 10)" fill="#003f46"/>
    <circle id="Ellipse_68-2" data-name="Ellipse 68" cx="1" cy="1" r="1" transform="translate(90 20)" fill="#003f46"/>
    <circle id="Ellipse_97-2" data-name="Ellipse 97" cx="1" cy="1" r="1" transform="translate(90)" fill="#003f46"/>
    <circle id="Ellipse_8-2" data-name="Ellipse 8" cx="1" cy="1" r="1" transform="translate(18 30)" fill="#003f46"/>
    <circle id="Ellipse_110-2" data-name="Ellipse 110" cx="1" cy="1" r="1" transform="translate(18 10)" fill="#003f46"/>
    <circle id="Ellipse_82-2" data-name="Ellipse 82" cx="1" cy="1" r="1" transform="translate(18 20)" fill="#003f46"/>
    <circle id="Ellipse_111-2" data-name="Ellipse 111" cx="1" cy="1" r="1" transform="translate(18)" fill="#003f46"/>
    <circle id="Ellipse_67-2" data-name="Ellipse 67" cx="1" cy="1" r="1" transform="translate(66 30)" fill="#003f46"/>
    <circle id="Ellipse_98-2" data-name="Ellipse 98" cx="1" cy="1" r="1" transform="translate(66 10)" fill="#003f46"/>
    <circle id="Ellipse_83-2" data-name="Ellipse 83" cx="1" cy="1" r="1" transform="translate(66 20)" fill="#003f46"/>
    <circle id="Ellipse_99-2" data-name="Ellipse 99" cx="1" cy="1" r="1" transform="translate(66)" fill="#003f46"/>
  </g>
</svg>
